name rise42.5664peak47.7979fall81.9185.mot
datacolumns 19
datarows 26
range 23.35824800000000 23.39992200000000
endheader
time	ground_force1_vx	ground_force1_vy	ground_force1_vz	ground_force1_px	ground_force1_py	ground_force1_pz	ground_force2_vx	ground_force2_vy	ground_force2_vz	ground_force2_px	ground_force2_py	ground_force2_pz	ground_torque1_x	ground_torque1_y	ground_torque1_z	ground_torque2_x	ground_torque2_y	ground_torque2_z	
23.35824800000000	-52.19155300000000	803.29651899999999	49.10257400000000	0.06296800000000	0.00000000000000	0.10572900000000	-4.24050400000000	20.56189500000000	5.11546100000000	0.00000000000000	0.00000000000000	0.00000000000000	0.00000000000000	16.02130200000000	0.00000000000000	0.00000000000000	1.71283200000000	0.00000000000000	
23.35990800000000	-52.24675000000000	801.75781600000005	48.97076700000000	0.06249300000000	0.00000000000000	0.10568400000000	-5.11147300000000	26.25463900000000	6.36505500000000	0.28667100000000	0.00000000000000	-0.05698600000000	0.00000000000000	15.93518500000000	0.00000000000000	0.00000000000000	3.67551200000000	0.00000000000000	
23.36157500000000	-52.31115100000000	800.10831800000005	48.82172900000000	0.06202500000000	0.00000000000000	0.10563400000000	-5.95312200000000	32.31992500000000	7.64695200000000	0.29314700000000	0.00000000000000	-0.05749200000000	0.00000000000000	15.85057300000000	0.00000000000000	0.00000000000000	4.48541800000000	0.00000000000000	
23.36325700000000	-52.38561700000000	798.34617200000002	48.65513000000000	0.06156400000000	0.00000000000000	0.10558000000000	-6.73213800000000	38.63752300000000	8.92552400000000	0.29893400000000	0.00000000000000	-0.05795400000000	0.00000000000000	15.76765500000000	0.00000000000000	0.00000000000000	5.31077900000000	0.00000000000000	
23.36490600000000	-52.47096000000000	796.46952999999996	48.47066500000000	0.06111000000000	0.00000000000000	0.10552200000000	-7.41857400000000	45.08967400000000	10.16714800000000	0.30414200000000	0.00000000000000	-0.05838200000000	0.00000000000000	15.68660700000000	0.00000000000000	0.00000000000000	6.13060600000000	0.00000000000000	
23.36657400000000	-52.56794200000000	794.47654199999999	48.26805400000000	0.06066200000000	0.00000000000000	0.10546100000000	-7.98778200000000	51.56995200000000	11.34248800000000	0.30885900000000	0.00000000000000	-0.05878000000000	0.00000000000000	15.60759600000000	0.00000000000000	0.00000000000000	6.92595500000000	0.00000000000000	
23.36825200000000	-52.67727000000000	792.36536100000001	48.04704600000000	0.06022200000000	0.00000000000000	0.10539500000000	-8.42171600000000	57.99013800000000	12.42816900000000	0.31315800000000	0.00000000000000	-0.05915400000000	0.00000000000000	15.53077500000000	0.00000000000000	0.00000000000000	7.68108900000000	0.00000000000000	
23.36991300000000	-52.79959000000000	790.13414699999998	47.80741600000000	0.05978700000000	0.00000000000000	0.10532500000000	-8.70951500000000	64.28461700000000	13.40772100000000	0.31709500000000	0.00000000000000	-0.05950700000000	0.00000000000000	15.45628700000000	0.00000000000000	0.00000000000000	8.38420400000000	0.00000000000000	
23.37157800000000	-52.93548400000000	787.78106500000001	47.54897100000000	0.05935900000000	0.00000000000000	0.10525100000000	-8.84740700000000	70.41223400000000	14.27181800000000	0.32071900000000	0.00000000000000	-0.05984200000000	0.00000000000000	15.38425700000000	0.00000000000000	0.00000000000000	9.02773000000000	0.00000000000000	
23.37325700000000	-53.08546500000000	785.30428800000004	47.27154500000000	0.05893700000000	0.00000000000000	0.10517300000000	-8.83805900000000	76.35583699999999	15.01789300000000	0.32406600000000	0.00000000000000	-0.06016300000000	0.00000000000000	15.31480100000000	0.00000000000000	0.00000000000000	9.60823000000000	0.00000000000000	
23.37491300000000	-53.24997300000000	782.70200299999999	46.97500600000000	0.05852100000000	0.00000000000000	0.10509000000000	-8.68950200000000	82.11991900000000	15.64925700000000	0.32717100000000	0.00000000000000	-0.06047100000000	0.00000000000000	15.24801400000000	0.00000000000000	0.00000000000000	10.12597800000000	0.00000000000000	
23.37657700000000	-53.42937100000000	779.97241199999996	46.65925100000000	0.05811000000000	0.00000000000000	0.10500400000000	-8.41379700000000	87.72689400000000	16.17389200000000	0.33006000000000	0.00000000000000	-0.06076900000000	0.00000000000000	15.18398000000000	0.00000000000000	0.00000000000000	10.58429600000000	0.00000000000000	
23.37824100000000	-53.62394200000000	777.11373300000002	46.32421100000000	0.05770400000000	0.00000000000000	0.10491300000000	-8.02560700000000	93.21254900000000	16.60307000000000	0.33275600000000	0.00000000000000	-0.06105700000000	0.00000000000000	15.12276300000000	0.00000000000000	0.00000000000000	10.98876400000000	0.00000000000000	
23.37991000000000	-53.83388200000000	774.12420799999995	45.96985000000000	0.05730400000000	0.00000000000000	0.10481800000000	-7.54079400000000	98.62118700000001	16.94994000000000	0.33527800000000	0.00000000000000	-0.06133800000000	0.00000000000000	15.06441200000000	0.00000000000000	0.00000000000000	11.34637100000000	0.00000000000000	
23.38157900000000	-54.05930200000000	771.00210400000003	45.59616400000000	0.05690700000000	0.00000000000000	0.10471900000000	-6.97516100000000	104.00092200000000	17.22820800000000	0.33764200000000	0.00000000000000	-0.06161300000000	0.00000000000000	15.00895700000000	0.00000000000000	0.00000000000000	11.66470400000000	0.00000000000000	
23.38324200000000	-54.30022100000000	767.74571800000001	45.20318400000000	0.05651500000000	0.00000000000000	0.10461500000000	-6.34341500000000	109.39946700000000	17.45100100000000	0.33986300000000	0.00000000000000	-0.06188200000000	0.00000000000000	14.95641100000000	0.00000000000000	0.00000000000000	11.95122800000000	0.00000000000000	
23.38492700000000	-54.55656400000000	764.35338200000001	44.79097700000000	0.05612700000000	0.00000000000000	0.10450800000000	-5.65838500000000	114.86065800000000	17.62996500000000	0.34195100000000	0.00000000000000	-0.06214700000000	0.00000000000000	14.90676800000000	0.00000000000000	0.00000000000000	12.21269600000000	0.00000000000000	
23.38658100000000	-54.82816100000000	760.82346700000005	44.35964100000000	0.05574100000000	0.00000000000000	0.10439600000000	-4.93052200000000	120.42186800000000	17.77463700000000	0.34391700000000	0.00000000000000	-0.06240800000000	0.00000000000000	14.86000200000000	0.00000000000000	0.00000000000000	12.45472000000000	0.00000000000000	
23.38825400000000	-55.11474100000000	757.15438700000004	43.90931400000000	0.05535900000000	0.00000000000000	0.10428000000000	-4.16766500000000	126.11233199999999	17.89208300000000	0.34577000000000	0.00000000000000	-0.06266500000000	0.00000000000000	14.81606900000000	0.00000000000000	0.00000000000000	12.68149900000000	0.00000000000000	
23.38992200000000	-55.41593500000000	753.34460600000000	43.44016600000000	0.05497800000000	0.00000000000000	0.10416100000000	-3.37503900000000	131.95237000000000	17.98678300000000	0.34751700000000	0.00000000000000	-0.06292100000000	0.00000000000000	14.77490700000000	0.00000000000000	0.00000000000000	12.89571300000000	0.00000000000000	
23.39157200000000	-55.73127200000000	749.39264100000003	42.95240200000000	0.05460000000000	0.00000000000000	0.10403700000000	-2.55545400000000	137.95337499999999	18.06073500000000	0.34916500000000	0.00000000000000	-0.06317400000000	0.00000000000000	14.73643100000000	0.00000000000000	0.00000000000000	13.09853900000000	0.00000000000000	
23.39325800000000	-56.06017600000000	745.29706899999996	42.44626400000000	0.05422200000000	0.00000000000000	0.10391000000000	-1.70963900000000	144.11845800000000	18.11372100000000	0.35071800000000	0.00000000000000	-0.06342600000000	0.00000000000000	14.70054100000000	0.00000000000000	0.00000000000000	13.28979000000000	0.00000000000000	
23.39491100000000	-56.40197000000000	741.05653199999995	41.92202900000000	0.05384400000000	0.00000000000000	0.10377900000000	-0.83668000000000	150.44355899999999	18.14368700000000	0.35218100000000	0.00000000000000	-0.06367800000000	0.00000000000000	14.66711600000000	0.00000000000000	0.00000000000000	13.46812500000000	0.00000000000000	
23.39658100000000	-56.75587200000000	736.66973900000005	41.38001100000000	0.05346700000000	0.00000000000000	0.10364400000000	0.06551000000000	156.91886000000000	18.14720100000000	0.35355900000000	0.00000000000000	-0.06392800000000	0.00000000000000	14.63601400000000	0.00000000000000	0.00000000000000	13.63131700000000	0.00000000000000	
23.39824800000000	-57.12099500000000	732.13547900000003	40.82055600000000	0.05308800000000	0.00000000000000	0.10350600000000	0.99971300000000	163.53034800000000	18.11991800000000	0.35485500000000	0.00000000000000	-0.06417800000000	0.00000000000000	14.60707900000000	0.00000000000000	0.00000000000000	13.77653100000000	0.00000000000000	
23.39992200000000	-57.49635100000000	727.45262000000002	40.24404600000000	0.05270700000000	0.00000000000000	0.10336400000000	1.96896900000000	170.26137600000001	18.05704100000000	0.35607100000000	0.00000000000000	-0.06442800000000	0.00000000000000	14.58013200000000	0.00000000000000	0.00000000000000	13.90060800000000	0.00000000000000	
